<svg width="20" height="21" viewBox="0 0 20 21" fill="none" xmlns="http://www.w3.org/2000/svg">
  <path d="M18.5672 10.9422L11.0672 18.4422C10.9798 18.5297 10.8684 18.5893 10.7471 18.6135C10.6258 18.6376 10.5 18.6252 10.3858 18.5779C10.2715 18.5305 10.1738 18.4504 10.1052 18.3475C10.0365 18.2446 9.9999 18.1237 10 18V14.875H3.75C3.41848 14.875 3.10054 14.7433 2.86612 14.5089C2.6317 14.2745 2.5 13.9565 2.5 13.625V7.375C2.5 7.04348 2.6317 6.72554 2.86612 6.49112C3.10054 6.2567 3.41848 6.125 3.75 6.125H10V3C9.9999 2.87632 10.0365 2.75539 10.1052 2.65252C10.1738 2.54964 10.2715 2.46946 10.3858 2.42211C10.5 2.37477 10.6258 2.36239 10.7471 2.38655C10.8684 2.4107 10.9798 2.47031 11.0672 2.55782L18.5672 10.0578C18.6253 10.1159 18.6714 10.1848 18.7029 10.2607C18.7343 10.3365 18.7505 10.4179 18.7505 10.5C18.7505 10.5821 18.7343 10.6635 18.7029 10.7393C18.6714 10.8152 18.6253 10.8841 18.5672 10.9422Z" fill="#2E2F36"/>
</svg>