<svg width="820" height="281" viewBox="0 0 820 281" fill="none" xmlns="http://www.w3.org/2000/svg">
<path d="M95.41 177.73C119.23 177.73 138.54 158.42 138.54 134.6C138.54 110.78 119.23 91.47 95.41 91.47C71.59 91.47 52.28 110.78 52.28 134.6C52.28 158.42 71.59 177.73 95.41 177.73Z" fill="#FC8001"/>
<path d="M95.49 93.87C90.2735 93.8641 85.118 94.992 80.3804 97.1756C75.6429 99.3591 71.4365 102.546 68.0524 106.516C64.6683 110.486 62.1875 115.144 60.7816 120.168C59.3756 125.191 59.0783 130.46 59.91 135.61C64.57 123.44 77.29 114.7 92.27 114.7C104.78 114.7 115.72 120.79 121.7 129.89H121.81C125.296 129.8 128.695 130.984 131.37 133.22C131.47 132.13 131.52 131.03 131.52 129.91C131.52 120.362 127.727 111.205 120.976 104.454C114.225 97.7028 105.068 93.91 95.52 93.91" fill="#FDCC01"/>
<path d="M131.37 133.22C128.695 130.984 125.296 129.8 121.81 129.89H121.7C111.1 129.96 99.95 139.17 96.7 150.53C95 156.58 95.9 162.02 98.7 165.79C97.63 165.89 96.53 165.95 95.43 165.95C86.8584 165.957 78.5658 162.905 72.0436 157.343C65.5214 151.781 61.1976 144.075 59.85 135.61C58.6114 138.881 57.9844 142.352 58 145.85C58.0355 150.126 58.9928 154.344 60.8066 158.217C62.6203 162.089 65.2478 165.525 68.51 168.29C73.6272 172.366 79.6041 175.225 85.9887 176.651C92.3734 178.078 98.9988 178.034 105.364 176.524C111.729 175.013 117.668 172.076 122.731 167.933C127.794 163.79 131.849 158.55 134.59 152.61C134.84 151.93 135.07 151.23 135.27 150.53C137.27 143.28 135.61 136.9 131.37 133.22Z" fill="#FD0024"/>
<path d="M243.34 143.91L246.13 133.51C246.265 133.002 246.264 132.468 246.128 131.96C245.991 131.452 245.724 130.99 245.352 130.618C244.98 130.246 244.518 129.979 244.01 129.842C243.502 129.706 242.968 129.705 242.46 129.84L232.06 132.62C231.555 132.759 231.096 133.027 230.727 133.398C230.358 133.769 230.093 134.231 229.957 134.736C229.822 135.242 229.821 135.774 229.955 136.28C230.089 136.785 230.352 137.248 230.72 137.62L238.33 145.23C238.701 145.6 239.162 145.867 239.668 146.003C240.174 146.14 240.707 146.141 241.214 146.008C241.721 145.874 242.184 145.61 242.557 145.242C242.93 144.874 243.2 144.415 243.34 143.91Z" fill="#FDCC01"/>
<path d="M365.49 131.19V166.71C365.49 166.885 365.42 167.053 365.297 167.177C365.173 167.3 365.005 167.37 364.83 167.37H356.53C356.357 167.367 356.191 167.297 356.07 167.173C355.948 167.05 355.88 166.883 355.88 166.71V134.3C355.88 124.04 350.25 118.01 340.59 118.01C331.39 118.01 324.18 124.4 324.18 134.53V166.71C324.18 166.883 324.112 167.05 323.99 167.173C323.869 167.297 323.703 167.367 323.53 167.37H315.23C315.057 167.367 314.891 167.297 314.77 167.173C314.648 167.05 314.58 166.883 314.58 166.71V134.3C314.58 124 309 118 299.29 118C290.29 118 282.82 124.15 282.82 134.52V166.7C282.82 166.873 282.752 167.04 282.63 167.163C282.509 167.287 282.343 167.357 282.17 167.36H273.93C273.756 167.357 273.589 167.287 273.466 167.164C273.343 167.041 273.273 166.874 273.27 166.7V110.7C273.273 110.527 273.343 110.361 273.467 110.24C273.59 110.118 273.757 110.05 273.93 110.05H282.11C282.282 110.05 282.448 110.118 282.57 110.24C282.692 110.362 282.76 110.528 282.76 110.7V115.48C282.764 115.61 282.807 115.736 282.883 115.842C282.959 115.948 283.065 116.029 283.187 116.075C283.309 116.121 283.441 116.13 283.568 116.1C283.695 116.071 283.811 116.005 283.9 115.91C288.47 110.72 295.05 108.91 300.99 108.91C309.99 108.91 317.14 112.73 320.99 119.12C321.047 119.217 321.129 119.298 321.228 119.354C321.326 119.41 321.437 119.44 321.55 119.44C321.663 119.44 321.774 119.41 321.872 119.354C321.971 119.298 322.053 119.217 322.11 119.12C326.8 111.45 335.03 108.91 342.29 108.91C356.06 108.93 365.49 117.83 365.49 131.19Z" fill="white"/>
<path d="M432.79 137.93C432.79 154.74 420.54 166.93 404.96 166.93C396.89 166.93 390.75 164.07 386.45 159.56C386.36 159.465 386.243 159.4 386.115 159.373C385.987 159.346 385.854 159.358 385.733 159.408C385.612 159.457 385.509 159.542 385.437 159.652C385.365 159.761 385.328 159.889 385.33 160.02V188.54C385.33 188.712 385.262 188.878 385.14 189C385.018 189.122 384.852 189.19 384.68 189.19H376.44C376.267 189.19 376.1 189.122 375.977 189C375.853 188.879 375.783 188.713 375.78 188.54V110.75C375.783 110.577 375.853 110.411 375.977 110.29C376.1 110.168 376.267 110.1 376.44 110.1H384.68C384.852 110.1 385.018 110.168 385.14 110.29C385.262 110.412 385.33 110.578 385.33 110.75V115.84C385.328 115.971 385.365 116.099 385.437 116.208C385.509 116.318 385.612 116.403 385.733 116.452C385.854 116.502 385.987 116.514 386.115 116.487C386.243 116.46 386.36 116.395 386.45 116.3C390.75 111.79 396.89 108.93 404.96 108.93C420.54 108.93 432.79 121.12 432.79 137.93ZM384.79 137.93C384.79 149.35 392.64 157.93 403.89 157.93C415.43 157.93 422.99 148.93 422.99 137.93C422.99 126.93 415.25 117.93 403.89 117.93C392.53 117.93 384.75 126.56 384.75 137.93H384.79Z" fill="white"/>
<path d="M541 121.86C540.958 121.937 540.9 122.005 540.83 122.059C540.761 122.113 540.681 122.152 540.595 122.174C540.51 122.195 540.421 122.199 540.334 122.185C540.247 122.17 540.164 122.138 540.09 122.09C534.821 119.015 528.841 117.368 522.74 117.31C515.12 117.31 510.2 120.53 510.2 125.57C510.2 130.02 514.2 132.07 520.98 132.89L527.43 133.71C539.26 135.29 546.23 140.27 546.23 149.47C546.23 160.07 536.74 166.93 521.57 166.93C514.87 166.93 505.87 165.36 498.63 160.15C498.495 160.05 498.403 159.903 498.372 159.738C498.34 159.573 498.372 159.403 498.46 159.26L502.21 153.26C502.256 153.182 502.318 153.115 502.392 153.063C502.467 153.011 502.551 152.976 502.64 152.959C502.728 152.942 502.82 152.944 502.908 152.965C502.996 152.986 503.078 153.025 503.15 153.08C507.25 156.08 512.72 158.57 521.62 158.57C530.76 158.57 536.39 155.57 536.39 150.08C536.39 145.98 532.76 143.4 525.2 142.46L518.76 141.7C506.28 140.18 500.24 134.55 500.24 126.12C500.24 115.45 509.09 109.01 522.62 109.01C531.14 109.01 538.94 111.21 544.32 114.7C544.457 114.795 544.554 114.938 544.593 115.1C544.631 115.262 544.609 115.433 544.53 115.58L541 121.86Z" fill="white"/>
<path d="M589.88 121.86C589.837 121.938 589.778 122.006 589.707 122.06C589.637 122.114 589.556 122.153 589.47 122.174C589.384 122.196 589.294 122.199 589.206 122.185C589.118 122.17 589.035 122.138 588.96 122.09C583.692 119.012 577.711 117.364 571.61 117.31C563.99 117.31 559.07 120.53 559.07 125.57C559.07 130.02 563.07 132.07 569.85 132.89L576.3 133.71C588.13 135.29 595.1 140.27 595.1 149.47C595.1 160.07 585.61 166.93 570.44 166.93C563.74 166.93 554.74 165.36 547.5 160.15C547.365 160.05 547.273 159.903 547.242 159.738C547.21 159.573 547.242 159.403 547.33 159.26L551.08 153.26C551.126 153.182 551.188 153.115 551.263 153.063C551.337 153.011 551.421 152.976 551.51 152.959C551.598 152.942 551.69 152.944 551.778 152.965C551.866 152.986 551.948 153.025 552.02 153.08C556.12 156.08 561.6 158.57 570.5 158.57C579.64 158.57 585.26 155.57 585.26 150.08C585.26 145.98 581.63 143.4 574.07 142.46L567.63 141.7C555.15 140.18 549.11 134.55 549.11 126.12C549.11 115.45 557.96 109.01 571.49 109.01C580.01 109.01 587.81 111.21 593.19 114.7C593.329 114.794 593.427 114.936 593.466 115.099C593.505 115.262 593.481 115.434 593.4 115.58L589.88 121.86Z" fill="white"/>
<path d="M196.57 152.26C196.45 152.142 196.288 152.075 196.12 152.075C195.951 152.075 195.79 152.142 195.67 152.26C187.44 160.04 175.82 159.81 168.1 152.09C160.19 144.18 160.1 132.29 168.39 124.04C176.47 115.96 188.03 115.88 195.94 123.35C195.999 123.41 196.069 123.457 196.146 123.49C196.223 123.522 196.306 123.539 196.39 123.539C196.474 123.539 196.557 123.522 196.634 123.49C196.711 123.457 196.781 123.41 196.84 123.35L202.3 117.89C202.363 117.828 202.412 117.754 202.446 117.672C202.48 117.591 202.497 117.503 202.497 117.415C202.497 117.327 202.48 117.239 202.446 117.158C202.412 117.076 202.363 117.002 202.3 116.94C190.38 105.49 173.01 105.6 161.48 117.13C149.8 128.81 149.84 146.5 161.77 158.43C173.53 170.19 190.92 170.43 202.61 159.25C202.679 159.186 202.734 159.109 202.772 159.023C202.81 158.937 202.829 158.844 202.829 158.75C202.829 158.656 202.81 158.563 202.772 158.477C202.734 158.391 202.679 158.314 202.61 158.25L196.57 152.26Z" fill="white"/>
<path d="M216.9 137.91C217.069 137.907 217.23 137.839 217.35 137.72C217.469 137.6 217.537 137.439 217.54 137.27C217.86 125.96 226.24 117.9 237.16 117.9C248.35 117.9 256.79 126.28 256.79 137.9C256.79 149.33 248.67 157.55 237.79 157.9C237.619 157.903 237.457 157.972 237.337 158.094C237.217 158.216 237.15 158.379 237.15 158.55V166.26C237.15 166.438 237.221 166.608 237.346 166.734C237.472 166.859 237.642 166.93 237.82 166.93C254.36 166.6 266.56 154.23 266.56 137.93C266.56 121.4 254.02 108.93 237.15 108.93C220.52 108.93 208.04 121.05 207.69 137.22C207.689 137.309 207.705 137.397 207.738 137.479C207.771 137.562 207.82 137.637 207.883 137.7C207.945 137.764 208.019 137.814 208.101 137.848C208.183 137.882 208.271 137.9 208.36 137.9L216.9 137.91Z" fill="white"/>
<path d="M492.11 110.1H483.87C483.697 110.103 483.531 110.173 483.41 110.297C483.288 110.42 483.22 110.587 483.22 110.76V115.76C477.858 111.02 470.926 108.443 463.77 108.53C447.25 108.53 434.77 121.07 434.77 137.94C434.77 154.57 446.9 167.04 463.07 167.4C463.248 167.4 463.418 167.329 463.544 167.204C463.669 167.078 463.74 166.908 463.74 166.73V158.2C463.741 158.116 463.726 158.032 463.695 157.954C463.664 157.876 463.618 157.805 463.56 157.745C463.501 157.684 463.431 157.636 463.354 157.603C463.277 157.569 463.194 157.551 463.11 157.55C451.8 157.24 443.74 148.86 443.74 137.94C443.74 126.75 452.11 118.31 463.74 118.31C473.68 118.31 483.19 125.31 483.19 133.19V166.74C483.19 166.913 483.258 167.08 483.38 167.203C483.501 167.327 483.667 167.397 483.84 167.4H492.08C492.254 167.397 492.421 167.327 492.544 167.204C492.667 167.081 492.737 166.914 492.74 166.74V110.76C492.738 110.591 492.672 110.429 492.555 110.306C492.438 110.184 492.279 110.11 492.11 110.1Z" fill="white"/>
<path d="M765.65 146.75C758.88 146.75 755.76 143.28 755.76 136.52V94.85H735V125.79C732.615 120.671 728.818 116.339 724.055 113.304C719.293 110.269 713.762 108.656 708.115 108.656C702.467 108.656 696.937 110.269 692.175 113.304C687.412 116.339 683.615 120.671 681.23 125.79V109.27H660.77V138.39C660.77 143.64 658.01 147.2 653.38 147.2C648.75 147.2 646 143.64 646 138.39V109.27H625.25V138.65C625.25 156.65 636.25 167.94 653.38 167.94C667.11 167.94 676.9 160.33 680.11 147.99C682.114 153.777 685.861 158.802 690.835 162.375C695.81 165.947 701.768 167.892 707.893 167.943C714.017 167.993 720.007 166.146 725.039 162.656C730.072 159.166 733.901 154.203 736 148.45C739 161.65 749 167.5 762.44 167.5H767.69V146.75H765.65ZM708.14 147.2C706.377 147.202 704.653 146.681 703.186 145.703C701.719 144.724 700.576 143.333 699.9 141.704C699.225 140.076 699.047 138.284 699.391 136.554C699.734 134.825 700.583 133.236 701.83 131.99C703.076 130.743 704.665 129.894 706.394 129.551C708.124 129.207 709.916 129.385 711.544 130.06C713.173 130.736 714.564 131.879 715.543 133.346C716.521 134.813 717.042 136.537 717.04 138.3C717.032 140.658 716.092 142.917 714.424 144.585C712.757 146.252 710.498 147.192 708.14 147.2Z" fill="white"/>
<path d="M608.349 165.597C607.032 165.597 605.901 165.126 604.958 164.182C604.015 163.239 603.543 162.109 603.543 160.792C603.543 159.475 604.015 158.344 604.958 157.401C605.901 156.458 607.032 155.986 608.349 155.986C609.666 155.986 610.796 156.458 611.739 157.401C612.682 158.344 613.154 159.475 613.154 160.792C613.154 161.664 612.932 162.465 612.487 163.194C612.06 163.924 611.481 164.511 610.751 164.956C610.039 165.384 609.239 165.597 608.349 165.597Z" fill="white"/>
</svg>
