<svg width="16" height="16" viewBox="0 0 16 16" fill="none" xmlns="http://www.w3.org/2000/svg">
<path d="M4.99534 12.5C4.71201 12.5 4.44867 12.3427 4.34534 12.0787C4.1165 11.4962 3.99935 10.8758 4.00001 10.25C4.00001 9.08333 4.39934 8.01133 5.06801 7.16067C5.16867 7.03267 5.31667 6.95467 5.46801 6.896C5.78334 6.774 6.06134 6.55333 6.27601 6.28C6.79352 5.61976 7.44316 5.07481 8.18334 4.68C8.66534 4.424 9.08334 4.04267 9.28534 3.53667C9.42721 3.18217 9.50007 2.80383 9.50001 2.422V2C9.50001 1.86739 9.55268 1.74021 9.64645 1.64645C9.74022 1.55268 9.8674 1.5 10 1.5C10.3978 1.5 10.7794 1.65804 11.0607 1.93934C11.342 2.22064 11.5 2.60218 11.5 3C11.5 3.768 11.3267 4.49533 11.018 5.14533C10.8407 5.51733 11.0893 6 11.5013 6H13.5853C14.2693 6 14.882 6.46267 14.9547 7.14333C14.9847 7.42467 15 7.71 15 8C15.0028 9.82423 14.3794 11.5942 13.234 13.014C12.9753 13.3353 12.576 13.5 12.164 13.5H9.48667C9.16467 13.5 8.84401 13.448 8.53801 13.3467L6.46201 12.6533C6.15608 12.5516 5.83575 12.4998 5.51334 12.5H4.99534ZM1.55401 7.318C1.18662 8.2518 0.998668 9.24653 1.00001 10.25C0.999165 11.0422 1.116 11.8301 1.34667 12.588C1.52001 13.1547 2.06934 13.5 2.66201 13.5H3.26667C3.56334 13.5 3.74667 13.168 3.61534 12.9013C3.20877 12.0767 2.99796 11.1694 2.99934 10.25C2.99934 9.11133 3.31667 8.04667 3.86734 7.13933C4.03067 6.87067 3.84867 6.5 3.53401 6.5H2.83334C2.27867 6.5 1.75801 6.802 1.55401 7.318Z" fill="#E9B425"/>
</svg> 